<svg width="14" height="14" viewBox="0 0 14 14" fill="none" xmlns="http://www.w3.org/2000/svg">
<path fill-rule="evenodd" clip-rule="evenodd" d="M4.375 0H9.625C12.0409 0 14 1.95913 14 4.375V9.625C14 12.0409 12.0409 14 9.625 14H4.375C1.95913 14 0 12.0409 0 9.625V4.375C0 1.95913 1.95913 0 4.375 0ZM9.625 12.6875C11.3138 12.6875 12.6875 11.3138 12.6875 9.625V4.375C12.6875 2.68625 11.3138 1.3125 9.625 1.3125H4.375C2.68625 1.3125 1.3125 2.68625 1.3125 4.375V9.625C1.3125 11.3138 2.68625 12.6875 4.375 12.6875H9.625Z" fill="#393C49"/>
<path fill-rule="evenodd" clip-rule="evenodd" d="M3.5 7C3.5 5.06712 5.06712 3.5 7 3.5C8.93288 3.5 10.5 5.06712 10.5 7C10.5 8.93288 8.93288 10.5 7 10.5C5.06712 10.5 3.5 8.93288 3.5 7ZM4.8125 7C4.8125 8.20575 5.79425 9.1875 7 9.1875C8.20575 9.1875 9.1875 8.20575 9.1875 7C9.1875 5.79338 8.20575 4.8125 7 4.8125C5.79425 4.8125 4.8125 5.79338 4.8125 7Z" fill="#393C49"/>
<circle cx="10.7625" cy="3.23749" r="0.466375" fill="#393C49"/>
</svg>
