<svg width="13" height="15" viewBox="0 0 13 15" fill="none" xmlns="http://www.w3.org/2000/svg">
<path d="M6.29731 0C2.18637 0 0.00012207 2.63438 0.00012207 5.50688C0.00012207 6.83906 0.744497 8.50031 1.93606 9.02719C2.117 9.10875 2.21543 9.07406 2.25575 8.90625C2.29137 8.77875 2.44793 8.16469 2.52387 7.875C2.54731 7.78219 2.53512 7.70156 2.46012 7.61438C2.0645 7.15688 1.75043 6.32344 1.75043 5.54156C1.75043 3.53813 3.34325 1.59281 6.05356 1.59281C8.39731 1.59281 10.037 3.11531 10.037 5.29313C10.037 7.75406 8.73481 9.45656 7.04262 9.45656C6.10606 9.45656 5.40856 8.72156 5.62981 7.81219C5.897 6.72937 6.42106 5.565 6.42106 4.78406C6.42106 4.08375 6.02543 3.50437 5.21731 3.50437C4.26387 3.50437 3.49043 4.44844 3.49043 5.71594C3.49043 6.52125 3.77543 7.065 3.77543 7.065C3.77543 7.065 2.83231 10.875 2.657 11.5866C2.36075 12.7912 2.69731 14.7422 2.72637 14.91C2.74418 15.0028 2.84825 15.0319 2.90637 14.9559C2.99918 14.8341 4.13918 13.2075 4.45887 12.0319C4.57512 11.6034 5.05231 9.86625 5.05231 9.86625C5.36637 10.4334 6.27293 10.9087 7.23856 10.9087C10.1111 10.9087 12.1867 8.38406 12.1867 5.25094C12.1764 2.24719 9.60575 0 6.29731 0Z" fill="#393C49"/>
</svg>
